<svg xmlns="http://www.w3.org/2000/svg" viewBox="0 0 32 32" role="img" aria-labelledby="title">
  <title id="title">ResearchGate</title>
  <rect width="32" height="32" rx="6" fill="#00ccbb"/>
  <path fill="#fff" d="M7.2 8h8.2c3.2 0 5.2 1.8 5.2 4.6 0 2-1.1 3.5-2.9 4.2l3.7 7.2h-4.3l-3.2-6.5h-2.6V24H7.2V8Zm4.1 3.4v2.9h3.5c1 0 1.6-.5 1.6-1.5s-.6-1.4-1.6-1.4h-3.5Z"/>
  <path fill="#fff" d="M22.5 18.7c0-3.1 2-5.3 5.1-5.3.8 0 1.5.1 2.1.4v3a4 4 0 0 0-1.9-.5c-1.1 0-1.8.7-1.8 2.2v.4c0 1.6.7 2.3 1.9 2.3.7 0 1.3-.2 1.9-.5v2.9c-.7.4-1.5.6-2.5.6-3 0-4.8-2-4.8-5.5Z"/>
</svg>
